<svg id="visual" viewBox="0 0 960 540" width="960" height="540" xmlns="http://www.w3.org/2000/svg" xmlns:xlink="http://www.w3.org/1999/xlink" version="1.1"><rect width="960" height="540" fill="#151515"></rect><g><g transform="translate(110 366)"><path d="M0 -70L60.6 -35L60.6 35L0 70L-60.6 35L-60.6 -35Z" fill="#093b2b"></path></g><g transform="translate(549 459)"><path d="M0 -34L29.4 -17L29.4 17L0 34L-29.4 17L-29.4 -17Z" fill="#093b2b"></path></g><g transform="translate(708 302)"><path d="M0 -29L25.1 -14.5L25.1 14.5L0 29L-25.1 14.5L-25.1 -14.5Z" fill="#093b2b"></path></g><g transform="translate(841 436)"><path d="M0 -60L52 -30L52 30L0 60L-52 30L-52 -30Z" fill="#093b2b"></path></g><g transform="translate(624 131)"><path d="M0 -64L55.4 -32L55.4 32L0 64L-55.4 32L-55.4 -32Z" fill="#093b2b"></path></g><g transform="translate(800 129)"><path d="M0 -51L44.2 -25.5L44.2 25.5L0 51L-44.2 25.5L-44.2 -25.5Z" fill="#093b2b"></path></g><g transform="translate(291 136)"><path d="M0 -33L28.6 -16.5L28.6 16.5L0 33L-28.6 16.5L-28.6 -16.5Z" fill="#093b2b"></path></g><g transform="translate(277 386)"><path d="M0 -17L14.7 -8.5L14.7 8.5L0 17L-14.7 8.5L-14.7 -8.5Z" fill="#093b2b"></path></g><g transform="translate(71 71)"><path d="M0 -18L15.6 -9L15.6 9L0 18L-15.6 9L-15.6 -9Z" fill="#093b2b"></path></g></g></svg>