<svg width="1509" height="805" viewBox="0 0 1509 805" fill="none" xmlns="http://www.w3.org/2000/svg">
<g clip-path="url(#clip0_271_170)">
<path d="M0 564.991L125.75 579.6C251.5 594.358 503 623.577 754.5 592.868C1006 562.009 1257.5 471.074 1383.25 425.606L1509 380.139V86.4629L1383.25 122.688C1257.5 159.062 1006 231.512 754.5 267.886C503 304.111 251.5 304.111 125.75 304.111H0V564.991Z" fill="#142820"/>
<path d="M0 806.491H125.75C251.5 806.491 503 806.491 754.5 806.491C1006 806.491 1257.5 806.491 1383.25 806.491H1509V377.157L1383.25 422.625C1257.5 468.092 1006 559.028 754.5 589.886C503 620.595 251.5 591.377 125.75 576.618L0 562.009V806.491Z" fill="#151515"/>
</g>
<defs>
<clipPath id="clip0_271_170">
<rect width="1509" height="805" fill="white"/>
</clipPath>
</defs>
</svg>
