<svg width="1509" height="849" viewBox="0 0 1509 849" fill="none" xmlns="http://www.w3.org/2000/svg">
<path d="M0 238.978L41.9691 257.373C83.7809 275.611 167.719 312.401 251.5 321.048C335.281 329.695 419.219 310.199 503 284.887C586.781 259.417 670.719 227.972 754.5 205.175C838.281 182.378 922.219 168.228 1006 185.208C1089.78 202.345 1173.72 250.455 1257.5 259.102C1341.28 267.749 1425.22 236.934 1467.03 221.369L1509 205.961V0H1467.03C1425.22 0 1341.28 0 1257.5 0C1173.72 0 1089.78 0 1006 0C922.219 0 838.281 0 754.5 0C670.719 0 586.781 0 503 0C419.219 0 335.281 0 251.5 0C167.719 0 83.7809 0 41.9691 0H0V238.978Z" fill="#151515"/>
<path d="M0 528.267L41.9691 532.512C83.7809 536.599 167.719 545.089 251.5 554.994C335.281 564.899 419.219 576.534 503 580.622C586.781 584.867 670.719 581.722 754.5 567.572C838.281 553.422 922.219 528.267 1006 509.872C1089.78 491.634 1173.72 479.999 1257.5 498.394C1341.28 516.789 1425.22 564.9 1467.03 589.112L1509 613.167V202.817L1467.03 218.224C1425.22 233.789 1341.28 264.605 1257.5 255.958C1173.72 247.311 1089.78 199.201 1006 182.063C922.219 165.083 838.281 179.233 754.5 202.031C670.719 224.828 586.781 256.272 503 281.742C419.219 307.055 335.281 326.551 251.5 317.903C167.719 309.256 83.7809 272.466 41.9691 254.228L0 235.833V528.267Z" fill="#15221C"/>
<path d="M0 688.634H41.9691C83.7809 688.634 167.719 688.634 251.5 694.451C335.281 700.111 419.219 711.745 503 716.147C586.781 720.55 670.719 718.034 754.5 715.047C838.281 712.217 922.219 709.072 1006 703.255C1089.78 697.595 1173.72 689.105 1257.5 699.167C1341.28 709.072 1425.22 737.372 1467.03 751.522L1509 765.672V610.022L1467.03 585.967C1425.22 561.755 1341.28 513.645 1257.5 495.25C1173.72 476.855 1089.78 488.49 1006 506.727C922.219 525.122 838.281 550.278 754.5 564.428C670.719 578.578 586.781 581.722 503 577.477C419.219 573.39 335.281 561.755 251.5 551.85C167.719 541.945 83.7809 533.455 41.9691 529.367L0 525.122V688.634Z" fill="#122E24"/>
</svg>
