<svg id="visual" viewBox="0 0 960 540" width="960" height="540" xmlns="http://www.w3.org/2000/svg" xmlns:xlink="http://www.w3.org/1999/xlink" version="1.1"><path d="M0 87L22.8 91.5C45.7 96 91.3 105 137 104.2C182.7 103.3 228.3 92.7 274 92.7C319.7 92.7 365.3 103.3 411.2 105.2C457 107 503 100 548.8 98.3C594.7 96.7 640.3 100.3 686 99.3C731.7 98.3 777.3 92.7 823 89C868.7 85.3 914.3 83.7 937.2 82.8L960 82L960 0L937.2 0C914.3 0 868.7 0 823 0C777.3 0 731.7 0 686 0C640.3 0 594.7 0 548.8 0C503 0 457 0 411.2 0C365.3 0 319.7 0 274 0C228.3 0 182.7 0 137 0C91.3 0 45.7 0 22.8 0L0 0Z" fill="#151515"></path><path d="M0 141L22.8 148.3C45.7 155.7 91.3 170.3 137 170.3C182.7 170.3 228.3 155.7 274 153.8C319.7 152 365.3 163 411.2 164.8C457 166.7 503 159.3 548.8 156.7C594.7 154 640.3 156 686 157.8C731.7 159.7 777.3 161.3 823 160.3C868.7 159.3 914.3 155.7 937.2 153.8L960 152L960 80L937.2 80.8C914.3 81.7 868.7 83.3 823 87C777.3 90.7 731.7 96.3 686 97.3C640.3 98.3 594.7 94.7 548.8 96.3C503 98 457 105 411.2 103.2C365.3 101.3 319.7 90.7 274 90.7C228.3 90.7 182.7 101.3 137 102.2C91.3 103 45.7 94 22.8 89.5L0 85Z" fill="#1c3028"></path><path d="M0 320L22.8 322.7C45.7 325.3 91.3 330.7 137 326.2C182.7 321.7 228.3 307.3 274 300.2C319.7 293 365.3 293 411.2 299.2C457 305.3 503 317.7 548.8 314.8C594.7 312 640.3 294 686 289.5C731.7 285 777.3 294 823 302.2C868.7 310.3 914.3 317.7 937.2 321.3L960 325L960 150L937.2 151.8C914.3 153.7 868.7 157.3 823 158.3C777.3 159.3 731.7 157.7 686 155.8C640.3 154 594.7 152 548.8 154.7C503 157.3 457 164.7 411.2 162.8C365.3 161 319.7 150 274 151.8C228.3 153.7 182.7 168.3 137 168.3C91.3 168.3 45.7 153.7 22.8 146.3L0 139Z" fill="#1f4134"></path><path d="M0 384L22.8 385.8C45.7 387.7 91.3 391.3 137 388.7C182.7 386 228.3 377 274 371.7C319.7 366.3 365.3 364.7 411.2 371.8C457 379 503 395 548.8 395.8C594.7 396.7 640.3 382.3 686 377C731.7 371.7 777.3 375.3 823 380.8C868.7 386.3 914.3 393.7 937.2 397.3L960 401L960 323L937.2 319.3C914.3 315.7 868.7 308.3 823 300.2C777.3 292 731.7 283 686 287.5C640.3 292 594.7 310 548.8 312.8C503 315.7 457 303.3 411.2 297.2C365.3 291 319.7 291 274 298.2C228.3 305.3 182.7 319.7 137 324.2C91.3 328.7 45.7 323.3 22.8 320.7L0 318Z" fill="#1c3028"></path><path d="M0 541L22.8 541C45.7 541 91.3 541 137 541C182.7 541 228.3 541 274 541C319.7 541 365.3 541 411.2 541C457 541 503 541 548.8 541C594.7 541 640.3 541 686 541C731.7 541 777.3 541 823 541C868.7 541 914.3 541 937.2 541L960 541L960 399L937.2 395.3C914.3 391.7 868.7 384.3 823 378.8C777.3 373.3 731.7 369.7 686 375C640.3 380.3 594.7 394.7 548.8 393.8C503 393 457 377 411.2 369.8C365.3 362.7 319.7 364.3 274 369.7C228.3 375 182.7 384 137 386.7C91.3 389.3 45.7 385.7 22.8 383.8L0 382Z" fill="#151515"></path></svg>