<svg width="306" height="68" viewBox="0 0 306 68" fill="none" xmlns="http://www.w3.org/2000/svg">
<path d="M0 66.24V4.416H44.352V14.496H12.96V30.336H40.8V40.32H12.96V56.256H44.352V66.24H0ZM73.2608 67.2C64.7488 67.2 58.5088 65.152 54.5408 61.056C50.5728 56.896 48.5888 51.04 48.5888 43.488C48.5888 35.936 50.5728 30.112 54.5408 26.016C58.5728 21.856 64.8128 19.776 73.2608 19.776C81.7725 19.776 88.0125 21.856 91.9805 26.016C96.0125 30.112 98.0285 35.936 98.0285 43.488C98.0285 51.04 96.0445 56.896 92.0765 61.056C88.1085 65.152 81.8365 67.2 73.2608 67.2ZM73.2608 56.16C77.4205 56.16 80.3965 55.232 82.1885 53.376C83.9805 51.456 84.8765 48.16 84.8765 43.488C84.8765 38.816 83.9805 35.552 82.1885 33.696C80.3965 31.776 77.4205 30.816 73.2608 30.816C69.1648 30.816 66.2208 31.776 64.4288 33.696C62.6368 35.552 61.7408 38.816 61.7408 43.488C61.7408 48.16 62.6368 51.456 64.4288 53.376C66.2208 55.232 69.1648 56.16 73.2608 56.16ZM108.481 66.24V30.72H102.145V20.736H108.481V16.128C108.481 11.392 109.825 7.52 112.513 4.512C115.201 1.504 119.168 0 124.416 0C126.528 0 128.416 0.160003 130.08 0.480003C131.744 0.800003 133.28 1.248 134.688 1.824V10.752C133.728 10.432 132.8 10.176 131.904 9.984C131.008 9.792 130.016 9.696 128.928 9.696C126.176 9.696 124.225 10.208 123.073 11.232C121.985 12.192 121.44 13.888 121.44 16.32V20.736H132.96L132.384 30.72H121.44V66.24H108.481ZM138.826 66.24V56.544H149.384V66.24H138.826Z" fill="white"/>
<path d="M176.42 67.2011C172.388 67.2011 168.772 66.4971 165.572 65.0891C162.436 63.6171 159.972 61.2491 158.18 57.9851C156.388 54.6571 155.492 50.2731 155.492 44.8331C155.492 39.3931 156.484 34.8171 158.468 31.1051C160.452 27.3931 163.108 24.5771 166.436 22.6571C169.764 20.7371 173.412 19.7771 177.38 19.7771C182.372 19.7771 186.628 20.9291 190.148 23.2331V1.53711H203.108V66.2411H191.972L191.204 62.0171C189.22 63.7451 187.044 65.0571 184.676 65.9531C182.372 66.7851 179.62 67.2011 176.42 67.2011ZM179.972 57.6971C184.004 57.6971 187.396 56.3211 190.148 53.5691V32.8331C187.46 30.4651 184.324 29.2811 180.74 29.2811C172.676 29.2811 168.644 34.4651 168.644 44.8331C168.644 49.6971 169.636 53.0571 171.62 54.9131C173.604 56.7691 176.388 57.6971 179.972 57.6971ZM235.851 67.2011C227.979 67.2011 221.739 65.2491 217.131 61.3451C212.523 57.3771 210.219 51.3931 210.219 43.3931C210.219 36.1611 212.139 30.4331 215.979 26.2091C219.883 21.9211 225.675 19.7771 233.355 19.7771C240.395 19.7771 245.771 21.6331 249.483 25.3451C253.259 28.9931 255.147 33.7931 255.147 39.7451V48.0011H222.219C222.923 51.6491 224.587 54.1451 227.211 55.4891C229.899 56.8331 233.675 57.5051 238.539 57.5051C240.971 57.5051 243.435 57.2811 245.931 56.8331C248.491 56.3851 250.667 55.8091 252.459 55.1051V64.3211C250.347 65.2811 247.883 65.9851 245.067 66.4331C242.251 66.9451 239.179 67.2011 235.851 67.2011ZM222.219 40.0331H243.819V37.5371C243.819 34.9131 243.051 32.8651 241.515 31.3931C239.979 29.8571 237.387 29.0891 233.739 29.0891C229.451 29.0891 226.443 29.9531 224.715 31.6811C223.051 33.4091 222.219 36.1931 222.219 40.0331ZM273.992 66.2411L256.04 20.7371H269.576L280.904 53.1851L292.328 20.7371H305.768L287.912 66.2411H273.992Z" fill="#22EAAA"/>
</svg>
