<svg id="visual" viewBox="0 0 960 540" width="960" height="540" xmlns="http://www.w3.org/2000/svg" xmlns:xlink="http://www.w3.org/1999/xlink" version="1.1"><rect width="960" height="540" fill="#151515"></rect><g><g transform="translate(585 289)"><path d="M0 -67.2L58.2 -33.6L58.2 33.6L0 67.2L-58.2 33.6L-58.2 -33.6Z" fill="#093b2b"></path></g><g transform="translate(131 174)"><path d="M0 -23L19.9 -11.5L19.9 11.5L0 23L-19.9 11.5L-19.9 -11.5Z" fill="#093b2b"></path></g><g transform="translate(788 205)"><path d="M0 -32L27.7 -16L27.7 16L0 32L-27.7 16L-27.7 -16Z" fill="#093b2b"></path></g><g transform="translate(558 459)"><path d="M0 -50L43.3 -25L43.3 25L0 50L-43.3 25L-43.3 -25Z" fill="#093b2b"></path></g><g transform="translate(231 81)"><path d="M0 -34L29.4 -17L29.4 17L0 34L-29.4 17L-29.4 -17Z" fill="#093b2b"></path></g><g transform="translate(761 373)"><path d="M0 -44L38.1 -22L38.1 22L0 44L-38.1 22L-38.1 -22Z" fill="#093b2b"></path></g></g></svg>