<svg id="visual" viewBox="0 0 960 540" width="960" height="540" xmlns="http://www.w3.org/2000/svg" xmlns:xlink="http://www.w3.org/1999/xlink" version="1.1"><rect width="960" height="540" fill="#151515"></rect><g><g transform="translate(887 385)"><path d="M0 -70L60.6 -35L60.6 35L0 70L-60.6 35L-60.6 -35Z" fill="#093b2b"></path></g><g transform="translate(642 78)"><path d="M0 -33L28.6 -16.5L28.6 16.5L0 33L-28.6 16.5L-28.6 -16.5Z" fill="#093b2b"></path></g><g transform="translate(413 466)"><path d="M0 -65L56.3 -32.5L56.3 32.5L0 65L-56.3 32.5L-56.3 -32.5Z" fill="#093b2b"></path></g><g transform="translate(455 126)"><path d="M0 -52L45 -26L45 26L0 52L-45 26L-45 -26Z" fill="#093b2b"></path></g><g transform="translate(751 463)"><path d="M0 -65L56.3 -32.5L56.3 32.5L0 65L-56.3 32.5L-56.3 -32.5Z" fill="#093b2b"></path></g><g transform="translate(100 273)"><path d="M0 -65L56.3 -32.5L56.3 32.5L0 65L-56.3 32.5L-56.3 -32.5Z" fill="#093b2b"></path></g><g transform="translate(619 395)"><path d="M0 -50L43.3 -25L43.3 25L0 50L-43.3 25L-43.3 -25Z" fill="#093b2b"></path></g><g transform="translate(303 324)"><path d="M0 -50L43.3 -25L43.3 25L0 50L-43.3 25L-43.3 -25Z" fill="#093b2b"></path></g><g transform="translate(759 193)"><path d="M0 -65L56.3 -32.5L56.3 32.5L0 65L-56.3 32.5L-56.3 -32.5Z" fill="#093b2b"></path></g></g></svg>