
<svg width="1512" height="790" viewBox="0 0 1512 790" fill="none" xmlns="http://www.w3.org/2000/svg">
<g clip-path="url(#clip0_271_249)">
<path d="M1512 0H0V790H1512V0Z" fill="#151515"/>
<path d="M886.724 267.43C905.624 294.056 915.232 320.389 926.887 357.548C938.542 394.707 952.402 442.693 933.502 467.856C914.444 492.872 862.784 494.92 822.779 484.094C782.774 473.269 754.267 449.569 717.727 424.552C681.344 399.535 636.614 373.056 633.149 343.357C629.527 313.806 667.012 280.743 703.552 253.97C740.092 227.344 775.687 206.863 807.502 210.228C839.474 213.593 867.824 240.657 886.724 267.43Z" stroke="#093B2B" stroke-width="20"/>
<path d="M434.227 459.078C445.567 483.509 430.132 518.913 422.572 547.441C414.854 575.822 415.327 597.328 403.987 616.785C392.647 636.389 369.494 654.091 342.089 658.187C314.684 662.283 282.712 652.774 256.724 633.17C230.737 613.713 210.577 584.015 217.664 561.046C224.752 538.078 259.244 521.693 285.232 497.261C311.219 472.976 328.859 440.645 356.737 431.135C384.772 421.626 422.887 434.793 434.227 459.078Z" stroke="#093B2B" stroke-width="20"/>
<path d="M1368.2 293.91C1393.87 311.026 1415.61 338.384 1411.2 361.645C1406.79 384.906 1376.08 404.071 1350.4 432.891C1324.89 461.711 1304.26 500.334 1270.55 512.476C1236.85 524.619 1190.23 510.282 1157.47 481.461C1124.86 452.495 1106.44 409.191 1115.1 373.787C1123.76 338.53 1159.83 311.319 1192.43 294.348C1225.03 277.232 1254.33 270.356 1283.78 270.356C1313.08 270.21 1342.53 276.939 1368.2 293.91Z" stroke="#093B2B" stroke-width="20"/>
</g>
<defs>
<clipPath id="clip0_271_249">
<rect width="1512" height="790" fill="white"/>
</clipPath>
</defs>
</svg>
